HIERARCHY
ROOT Hips
{
	OFFSET 0.000000 0.000000 0.000000
	CHANNELS 6 Xposition Yposition Zposition Zrotation Yrotation Xrotation 
	JOINT LHipJoint
	{
		OFFSET 0.000000 0.000000 0.000000
		CHANNELS 3 Zrotation Yrotation Xrotation
		JOINT LeftUpLeg
		{
			OFFSET 1.363060 -1.794630 0.839290
			CHANNELS 3 Zrotation Yrotation Xrotation
			JOINT LeftLeg
			{
				OFFSET 2.448110 -6.726130 0.000000
				CHANNELS 3 Zrotation Yrotation Xrotation
				JOINT LeftFoot
				{
					OFFSET 2.562200 -7.039590 0.000000
					CHANNELS 3 Zrotation Yrotation Xrotation
					JOINT LeftToeBase
					{
						OFFSET 0.157640 -0.433110 2.322550
						CHANNELS 3 Zrotation Yrotation Xrotation
						End Site
						{
							OFFSET 0.000000 0.000000 0.000000
						}
					}
				}
			}
		}
	}
	JOINT RHipJoint
	{
		OFFSET 0.000000 0.000000 0.000000
		CHANNELS 3 Zrotation Yrotation Xrotation
		JOINT RightUpLeg
		{
			OFFSET -1.305520 -1.794630 0.839290
			CHANNELS 3 Zrotation Yrotation Xrotation
			JOINT RightLeg
			{
				OFFSET -2.542530 -6.985550 0.000000
				CHANNELS 3 Zrotation Yrotation Xrotation
				JOINT RightFoot
				{
					OFFSET -2.568260 -7.056230 0.000000
					CHANNELS 3 Zrotation Yrotation Xrotation
					JOINT RightToeBase
					{
						OFFSET -0.164730 -0.452590 2.363150
						CHANNELS 3 Zrotation Yrotation Xrotation
						End Site
						{
							OFFSET 0.000000 0.000000 0.000000
						}
					}
				}
			}
		}
	}
	JOINT LowerBack
	{
		OFFSET 0.000000 0.000000 0.000000
		CHANNELS 3 Zrotation Yrotation Xrotation
		JOINT Spine
		{
			OFFSET 0.028270 2.035590 -0.193380
			CHANNELS 3 Zrotation Yrotation Xrotation
			JOINT Spine1
			{
				OFFSET 0.056720 2.048850 -0.042750
				CHANNELS 3 Zrotation Yrotation Xrotation
				JOINT Neck
				{
					OFFSET 0.000000 0.000000 0.000000
					CHANNELS 3 Zrotation Yrotation Xrotation
					JOINT Neck1
					{
						OFFSET -0.054170 1.746240 0.172020
						CHANNELS 3 Zrotation Yrotation Xrotation
						JOINT Head
						{
							OFFSET 0.104070 1.761360 -0.123970
							CHANNELS 3 Zrotation Yrotation Xrotation
							End Site
							{
								OFFSET 0.000000 0.000000 0.000000
							}
						}
					}
				}
				JOINT LeftShoulder
				{
					OFFSET 0.000000 0.000000 0.000000
					CHANNELS 3 Zrotation Yrotation Xrotation
					JOINT LeftArm
					{
						OFFSET 3.362410 1.200890 -0.311210
						CHANNELS 3 Zrotation Yrotation Xrotation
						JOINT LeftForeArm
						{
							OFFSET 4.983000 -0.000000 -0.000000
							CHANNELS 3 Zrotation Yrotation Xrotation
							JOINT LeftHand
							{
								OFFSET 3.483560 -0.000000 -0.000000
								CHANNELS 3 Zrotation Yrotation Xrotation
								JOINT LeftFingerBase
								{
									OFFSET 0.000000 0.000000 0.000000
									CHANNELS 3 Zrotation Yrotation Xrotation
									JOINT LeftHandIndex1
									{
										OFFSET 0.715260 -0.000000 -0.000000
										CHANNELS 3 Zrotation Yrotation Xrotation
										End Site
										{
											OFFSET 0.000000 0.000000 0.000000
										}
									}
								}
								JOINT LThumb
								{
									OFFSET 0.000000 0.000000 0.000000
									CHANNELS 3 Zrotation Yrotation Xrotation
									End Site
									{
										OFFSET 0.000000 0.000000 0.000000
									}
								}
							}
						}
					}
				}
				JOINT RightShoulder
				{
					OFFSET 0.000000 0.000000 0.000000
					CHANNELS 3 Zrotation Yrotation Xrotation
					JOINT RightArm
					{
						OFFSET -3.136600 1.374050 -0.404650
						CHANNELS 3 Zrotation Yrotation Xrotation
						JOINT RightForeArm
						{
							OFFSET -5.241900 -0.000000 -0.000000
							CHANNELS 3 Zrotation Yrotation Xrotation
							JOINT RightHand
							{
								OFFSET -3.444170 -0.000000 -0.000000
								CHANNELS 3 Zrotation Yrotation Xrotation
								JOINT RightFingerBase
								{
									OFFSET 0.000000 0.000000 0.000000
									CHANNELS 3 Zrotation Yrotation Xrotation
									JOINT RightHandIndex1
									{
										OFFSET -0.622530 -0.000000 -0.000000
										CHANNELS 3 Zrotation Yrotation Xrotation
										End Site
										{
											OFFSET 0.000000 0.000000 0.000000
										}
									}
								}
								JOINT RThumb
								{
									OFFSET 0.000000 0.000000 0.000000
									CHANNELS 3 Zrotation Yrotation Xrotation
									End Site
									{
										OFFSET 0.000000 0.000000 0.000000
									}
								}
							}
						}
					}
				}
			}
		}
	}
}
MOTION
Frames: 6
Frame Time: 0.008333
0.669840 9.169344 -4.396688 -2.100004 3.586725 6.912848 1.833933 0.575070 0.451093 -0.399267 21.824876 -95.130057 35.488346 14.066571 141.010519 -1.546586 -40.317682 -18.469891 0.818600 -5.773100 -16.127500 2.799181 0.052122 2.280458 16.747704 -41.072792 -107.225598 -35.971410 -11.199520 144.783929 -1.429664 28.055741 -15.305423 -0.044700 1.365100 -3.753900 3.588084 8.464491 38.162481 9.166846 9.449377 28.740057 1.034521 4.967079 -4.169503 -4.981788 -7.686110 -16.216842 -1.143065 -8.753374 18.374666 -2.483100 -4.275400 10.693500 0.397327 6.450516 -2.682696 -78.798754 2.349751 67.058314 103.036112 -61.983116 -69.649824 1.055276 0.140514 13.050812 51.912010 13.309071 15.466900 -7.125000 0.000000 0.000000 23.358800 48.592500 2.179900 -0.530688 -6.739412 -1.635555 66.640344 57.686716 10.758117 -16.303690 33.108812 -2.082671 -0.315123 1.086968 16.688966 -75.040443 36.389639 -63.585900 7.125000 0.000000 0.000000 -21.833900 35.080500 -31.600900 
0.672115 9.165882 -4.391544 -2.071418 3.558989 6.825126 1.824893 0.579395 0.456051 -0.350609 21.879534 -95.045516 35.508693 14.047073 141.084454 -1.487246 -40.293971 -18.707593 0.894800 -6.029000 -16.868600 2.793552 0.058761 2.274025 16.663682 -41.206947 -107.111499 -35.975503 -11.188817 144.818574 -1.432948 28.060160 -15.320449 -0.049200 1.431900 -3.938100 3.734682 8.368882 38.283902 8.937182 9.419417 28.748625 0.863893 4.939425 -4.185344 -4.797966 -7.630401 -16.099712 -1.066712 -8.749208 18.281252 -2.479100 -4.251900 10.633000 0.416995 6.422522 -2.677686 -78.570138 2.290537 67.038675 103.083227 -61.973145 -69.683436 1.056612 0.145562 13.195993 52.049456 13.576199 15.830200 -7.125000 0.000000 0.000000 23.616700 48.987100 2.446900 -0.525556 -6.725232 -1.681665 66.912920 57.482277 11.044883 -16.470039 33.330694 -2.176137 -0.294550 1.077248 16.884581 -74.769083 36.404852 -63.215000 7.125000 0.000000 0.000000 -21.668700 34.841200 -31.331000 
0.674983 9.163311 -4.386698 -2.098961 3.542926 6.709094 1.817229 0.579249 0.457563 -0.158505 21.797866 -94.890481 35.518951 14.039823 141.117427 -1.474989 -40.325212 -18.789137 0.913000 -6.088300 -17.040800 2.795662 0.063623 2.271881 16.637154 -41.306576 -106.945457 -35.978415 -11.184393 144.833519 -1.463148 27.996253 -15.464579 -0.057700 1.549400 -4.261800 3.853131 8.311784 38.387232 8.848431 9.404537 28.775877 0.769640 4.928911 -4.173035 -4.746127 -7.631408 -16.003342 -0.938136 -8.785325 18.233156 -2.444000 -4.249100 10.601700 0.427415 6.408723 -2.673227 -78.472046 2.221679 67.049770 103.152979 -61.962591 -69.739156 1.058762 0.151929 13.180769 52.215951 13.806668 16.171200 -7.125000 0.000000 0.000000 23.894600 49.340400 2.696500 -0.527069 -6.705684 -1.711588 67.092481 57.318477 11.131105 -16.610696 33.519577 -2.259104 -0.267617 1.070818 17.327222 -74.357336 36.279236 -62.546900 7.125000 0.000000 0.000000 -21.489000 34.328800 -31.022500 
0.675082 9.158365 -4.381950 -2.038459 3.499325 6.752501 1.814103 0.574139 0.451916 -0.057896 21.586638 -94.930178 35.520199 14.030610 141.161077 -1.613075 -40.432620 -18.287867 0.839000 -5.842900 -16.329200 2.797069 0.063383 2.272660 16.606611 -41.312235 -107.050217 -35.993419 -11.164758 144.903145 -1.469979 27.982096 -15.498205 -0.063500 1.626300 -4.474100 3.732859 8.364088 38.353424 8.862774 9.422378 28.763068 0.822052 4.935740 -4.211595 -4.796574 -7.652305 -15.957326 -0.895643 -8.799535 18.306848 -2.421800 -4.250600 10.622300 0.427909 6.413573 -2.671896 -78.473670 2.211838 67.092675 103.106018 -61.969547 -69.702662 1.061135 0.150633 13.197155 52.401848 13.823319 16.292000 -7.125000 0.000000 0.000000 24.107600 49.411800 2.767600 -0.533643 -6.690629 -1.719283 67.043270 57.160817 11.338079 -16.696916 33.598463 -2.304853 -0.259693 1.064839 17.496231 -74.297744 36.281618 -62.475400 7.125000 0.000000 0.000000 -21.449500 34.288300 -30.958700 
0.675577 9.153518 -4.378389 -1.938840 3.480604 6.848898 1.815439 0.570914 0.447825 -0.128243 21.485913 -95.075768 35.530197 14.010267 141.240094 -1.675182 -40.391802 -17.976753 0.796000 -5.695000 -15.901900 2.794754 0.061479 2.270883 16.518318 -41.333396 -107.274652 -36.011009 -11.137702 145.002938 -1.427380 28.066393 -15.279810 -0.058700 1.563500 -4.300700 3.566204 8.422602 38.303448 8.898097 9.429955 28.742930 0.913371 4.936872 -4.253090 -4.836476 -7.659680 -16.065245 -0.939019 -8.773422 18.455622 -2.432400 -4.242100 10.692900 0.425181 6.425787 -2.672991 -78.506179 2.139369 67.160540 102.921826 -61.994620 -69.551969 1.062146 0.148173 13.215037 52.473391 13.807592 16.316400 -7.125000 0.000000 0.000000 24.180900 49.412000 2.777000 -0.537671 -6.684588 -1.707515 66.834134 57.057109 11.584178 -16.791995 33.679176 -2.350761 -0.261176 1.057078 17.383566 -74.424275 36.499533 -62.812900 7.125000 0.000000 0.000000 -21.416100 34.634000 -30.926500 
0.678346 9.151837 -4.372949 -1.888501 3.484227 6.873639 1.815807 0.568783 0.447971 -0.210965 21.491107 -95.062381 35.540059 13.999053 141.278442 -1.595471 -40.230100 -18.173605 0.822800 -5.787600 -16.169500 2.795158 0.063092 2.267672 16.456295 -41.448128 -107.380935 -36.022753 -11.120405 145.069151 -1.416816 28.117643 -15.237490 -0.061900 1.605800 -4.417400 3.521233 8.428725 38.272668 8.913006 9.419057 28.752348 0.950843 4.933085 -4.238729 -4.828345 -7.644248 -16.147545 -0.977146 -8.739873 18.511241 -2.446800 -4.229600 10.726500 0.425950 6.426883 -2.672513 -78.500746 2.045407 67.240772 102.893864 -61.998868 -69.529404 1.059912 0.150231 13.118600 52.317098 13.784299 16.204900 -7.125000 0.000000 0.000000 23.997900 49.339900 2.709100 -0.540167 -6.681560 -1.705872 66.782075 57.003298 11.646832 -16.837211 33.728266 -2.373004 -0.257218 1.053831 17.508307 -74.521146 36.777477 -63.132800 7.125000 0.000000 0.000000 -21.340400 34.991700 -30.828100 
